<svg version="1.1" id="Layer_1" xmlns="http://www.w3.org/2000/svg" xmlns:xlink="http://www.w3.org/1999/xlink" x="0px" y="0px"
	 width="100%" viewBox="0 0 1600 896" enable-background="new 0 0 1600 896" xml:space="preserve">
<path fill="none" opacity="1.000000" stroke="none" 
	d="
M1482.000000,897.000000 
	C988.000000,897.000000 494.500000,897.000000 1.000000,897.000000 
	C1.000000,598.333313 1.000000,299.666656 1.000000,1.000000 
	C534.333313,1.000000 1067.666626,1.000000 1601.000000,1.000000 
	C1601.000000,299.666656 1601.000000,598.333313 1601.000000,897.000000 
	C1561.500000,897.000000 1522.000000,897.000000 1482.000000,897.000000 
M371.949280,417.146637 
	C371.757202,416.927643 371.565094,416.708649 371.553345,415.811615 
	C377.942749,402.431885 387.177124,391.542877 399.753937,383.573547 
	C404.830139,380.357025 404.809784,375.339935 399.498627,372.162354 
	C389.318909,366.071960 378.199127,362.917908 366.388519,362.095123 
	C315.897369,358.577637 280.030518,398.262451 272.203339,437.066650 
	C269.912262,448.425049 274.427734,453.863495 285.022919,456.904510 
	C300.242645,461.272827 315.167511,458.072815 329.740997,453.694641 
	C361.322083,444.207092 388.191742,426.640411 411.766083,403.937866 
	C418.206299,397.735809 423.872009,390.667542 429.419861,383.624023 
	C432.731903,379.419067 431.193115,375.170013 426.721161,373.569672 
	C422.883148,372.196198 421.339935,375.044647 419.437927,377.304230 
	C405.949615,393.328186 390.898743,407.541534 371.949280,417.146637 
M289.593018,480.282990 
	C287.083191,479.009094 284.495850,477.865417 282.083099,476.428467 
	C279.048248,474.621124 276.070679,473.792419 273.735962,477.121887 
	C271.526611,480.272522 271.742157,483.801239 275.098145,485.859528 
	C279.998749,488.865143 285.036255,492.210846 290.481232,493.653564 
	C303.643860,497.141174 316.983002,495.465851 330.004272,492.301544 
	C357.527100,485.613281 381.555725,472.083466 403.115295,453.943909 
	C406.989166,450.684540 410.796631,447.346252 414.634766,444.044403 
	C414.513550,449.385834 413.787628,454.338074 412.147003,458.966034 
	C397.667480,499.809845 350.944977,525.395813 308.471893,515.859680 
	C304.763428,515.027039 301.360962,514.921448 299.851624,519.197815 
	C298.178345,523.938721 301.219635,526.177429 305.089050,527.077942 
	C311.543457,528.580078 318.102051,530.564026 324.636353,530.639038 
	C360.524963,531.051453 389.589691,516.659180 411.251343,488.199341 
	C424.030792,471.409241 430.289948,452.180023 428.864197,430.770660 
	C428.761444,429.227753 429.803467,427.431702 430.728546,426.026855 
	C435.658508,418.540497 441.259155,411.441101 445.604675,403.638062 
	C451.388367,393.252686 455.085938,382.010345 455.307220,369.912811 
	C455.378571,366.012848 454.109558,362.935638 449.606171,362.588226 
	C445.718323,362.288269 442.906097,365.007172 442.878418,369.530548 
	C442.813995,380.050140 439.161591,389.545807 433.951080,398.280090 
	C410.913635,436.897003 377.532654,462.807617 335.041901,476.950256 
	C320.565125,481.768707 305.650208,484.366425 289.593018,480.282990 
M1245.698853,429.199615 
	C1231.711792,443.704010 1229.019287,460.802429 1235.790405,479.082611 
	C1246.751465,508.674530 1285.498901,513.935974 1302.292969,491.997070 
	C1302.630737,491.555786 1303.132690,491.240387 1304.463623,490.069794 
	C1304.463623,495.040588 1304.463623,498.892059 1304.463623,502.674652 
	C1309.833740,502.674652 1314.585083,502.674652 1319.560303,502.674652 
	C1319.560303,460.980316 1319.560303,419.604248 1319.560303,378.275940 
	C1314.310181,378.275940 1309.401978,378.275940 1304.073975,378.275940 
	C1304.073975,387.586670 1304.073975,396.545593 1304.073975,405.504547 
	C1304.073975,414.525116 1304.073975,423.545715 1304.073975,433.487518 
	C1286.246582,411.771393 1259.050537,415.775604 1245.698853,429.199615 
M832.861572,500.648285 
	C835.928528,493.285248 839.182190,485.991943 841.969604,478.524567 
	C843.070801,475.574463 844.717712,474.966888 847.520752,474.981659 
	C864.672424,475.072174 881.825684,475.116241 898.976074,474.941406 
	C902.087585,474.909698 903.266846,476.130920 904.303345,478.787262 
	C907.083130,485.911224 910.098206,492.947662 913.215698,499.931488 
	C913.773926,501.182190 915.217590,502.830658 916.339539,502.900726 
	C921.447998,503.219818 926.587585,503.040649 932.353882,503.040649 
	C931.494446,500.809875 930.916687,499.114624 930.200500,497.479980 
	C915.729614,464.450958 901.253052,431.424408 886.754395,398.407623 
	C880.871216,385.010315 880.846069,385.021057 866.102661,386.233795 
	C865.940552,386.247101 865.783875,386.326935 865.515869,386.409088 
	C848.503784,425.070099 831.461853,463.798889 814.215393,502.992493 
	C819.647583,502.992493 824.458862,503.089813 829.260559,502.918579 
	C830.350281,502.879700 831.406921,501.909637 832.861572,500.648285 
M536.382690,385.080475 
	C521.907288,381.406128 508.073730,382.124420 495.147675,390.560730 
	C477.370575,402.163177 473.563293,434.242889 498.958374,445.863464 
	C502.424896,447.449677 506.035126,448.737610 509.626190,450.032318 
	C516.506226,452.512787 523.560730,454.567963 530.279419,457.420105 
	C536.608704,460.107056 539.307007,465.505402 538.977844,472.350586 
	C538.519226,481.888489 530.630127,489.186829 519.993103,490.017944 
	C507.484009,490.995331 497.202209,486.382507 489.107117,477.920746 
	C484.901367,481.812256 480.812622,485.595520 476.594482,489.498505 
	C490.985046,504.441376 508.246582,508.094696 527.354431,504.203064 
	C547.613892,500.076874 558.302856,485.295074 556.119019,465.148193 
	C554.522888,450.422882 544.201782,443.669708 531.634888,439.196838 
	C523.657410,436.357483 515.490906,433.988556 507.687317,430.740356 
	C501.589813,428.202240 497.969147,423.213593 498.080261,416.272980 
	C498.195709,409.061218 501.866730,403.953369 508.281006,400.981049 
	C515.724121,397.531982 523.521851,397.141296 531.067871,400.339294 
	C535.549744,402.238708 539.582092,405.198608 544.094543,407.844727 
	C547.567261,404.113129 551.274963,400.128998 556.035950,395.013000 
	C549.349609,391.583069 543.247742,388.452942 536.382690,385.080475 
M1017.054443,431.473450 
	C1011.705627,423.492340 1004.171692,419.123871 994.679138,418.192261 
	C981.886475,416.936737 971.686096,421.558807 963.681702,433.725708 
	C963.681702,414.167877 963.681702,396.317932 963.681702,378.331848 
	C958.173950,378.331848 953.148132,378.331848 948.220947,378.331848 
	C948.220947,419.976257 948.220947,461.234283 948.220947,502.694885 
	C953.396851,502.694885 958.272888,502.694885 963.365723,502.694885 
	C963.453918,501.420410 963.578735,500.442596 963.580688,499.464539 
	C963.606812,486.469818 963.075378,473.442383 963.858337,460.494171 
	C964.245789,454.086029 966.077698,447.329987 968.991333,441.616119 
	C972.946289,433.860107 982.683655,430.512909 990.934875,432.374237 
	C999.641785,434.338379 1005.118896,440.288483 1006.284424,449.813965 
	C1006.888245,454.749298 1006.791809,459.783325 1006.817810,464.773804 
	C1006.883545,477.404755 1006.839600,490.036255 1006.839600,502.744446 
	C1012.235901,502.744446 1017.164917,502.744446 1022.305054,502.744446 
	C1022.447327,501.543549 1022.660522,500.575043 1022.662354,499.606140 
	C1022.692322,483.446198 1023.187073,467.264160 1022.462402,451.137177 
	C1022.174561,444.732452 1019.170410,438.449768 1017.054443,431.473450 
M1082.620117,418.039978 
	C1061.921631,419.166840 1046.657227,433.372375 1043.373047,454.564819 
	C1040.120728,475.552612 1051.145874,495.669617 1069.781372,502.750519 
	C1087.745117,509.576172 1110.590820,503.025085 1120.399048,487.966278 
	C1117.184692,485.256256 1113.933350,482.515167 1110.719238,479.805328 
	C1097.599365,492.229950 1085.619019,495.108032 1073.110352,489.059692 
	C1064.822510,485.052246 1058.884644,475.775848 1059.553101,467.264954 
	C1081.226196,467.264954 1102.945923,467.264954 1124.608887,467.264954 
	C1127.165283,438.148102 1110.483887,418.383850 1082.620117,418.039978 
M663.897461,453.444244 
	C659.852966,454.919281 655.555786,455.926422 651.807922,457.950653 
	C635.870728,466.558228 634.123047,488.871643 648.549500,499.812805 
	C656.676086,505.976013 666.158813,506.179321 675.769104,504.593506 
	C684.180359,503.205536 690.309204,497.987732 696.185242,491.299133 
	C696.410828,495.663574 696.594543,499.216919 696.771484,502.638794 
	C701.791382,502.638794 706.347778,502.638794 711.157532,502.638794 
	C711.157532,485.611816 711.163330,468.967224 711.150391,452.322601 
	C711.148682,450.158997 711.214905,447.976501 710.968262,445.835144 
	C709.803711,435.722565 705.758362,427.346191 696.419922,422.249084 
	C681.087280,413.880341 655.655701,418.354950 643.452148,432.022430 
	C646.520935,434.710510 649.621643,437.426483 653.054626,440.433533 
	C658.723572,434.974030 665.934631,432.038086 674.162781,431.409180 
	C687.984680,430.352783 697.059265,438.843323 695.528870,451.245239 
	C685.222656,451.908081 674.966431,452.567719 663.897461,453.444244 
M1196.229614,446.023651 
	C1196.491699,447.810120 1196.753784,449.596588 1197.099243,451.950806 
	C1189.844727,451.950806 1183.037964,451.716675 1176.253784,452.008362 
	C1167.181396,452.398438 1158.359741,454.147247 1150.600464,459.224579 
	C1142.492554,464.530029 1138.920410,472.320312 1139.566406,481.831970 
	C1140.217896,491.420715 1145.066528,498.409424 1153.900146,502.442566 
	C1167.798340,508.788147 1183.792358,505.522369 1194.040039,494.199829 
	C1194.768188,493.395264 1194.998291,492.139893 1195.460083,491.094116 
	C1196.021362,491.505585 1196.582764,491.917053 1197.144043,492.328522 
	C1197.144043,495.729767 1197.144043,499.131012 1197.144043,502.771729 
	C1202.154785,502.771729 1206.716797,502.771729 1211.304932,502.771729 
	C1211.503174,502.087341 1211.754395,501.624420 1211.754639,501.161346 
	C1211.766113,483.334290 1212.223267,465.490997 1211.606079,447.685028 
	C1211.058350,431.884216 1202.300659,421.862274 1187.854126,419.140808 
	C1183.316528,418.285950 1178.545898,417.845673 1173.963013,418.216705 
	C1162.633789,419.133881 1152.434570,423.011414 1143.897217,431.299255 
	C1147.301514,434.681763 1150.318604,437.679474 1153.303467,440.645264 
	C1163.826538,432.632324 1169.896606,430.702820 1179.690552,431.633148 
	C1188.304321,432.451385 1193.866699,436.720062 1196.229614,446.023651 
M733.562378,420.139648 
	C731.122314,420.139648 728.682190,420.139648 725.799805,420.139648 
	C726.241211,421.636566 726.414612,422.588440 726.791992,423.451019 
	C736.923828,446.610931 746.637634,469.970032 757.471680,492.797302 
	C761.108032,500.458954 760.760071,506.522125 757.333862,513.735535 
	C752.005676,524.953369 747.292297,527.190430 735.686768,522.626221 
	C735.458923,522.536621 735.082703,522.824341 734.378662,523.080566 
	C733.034424,526.991699 731.609192,531.138733 730.216492,535.190857 
	C747.249939,543.802246 763.319641,538.480164 770.376099,521.653259 
	C784.011047,489.139404 797.197632,456.437469 810.545227,423.803375 
	C810.970581,422.763397 811.124268,421.612335 811.480896,420.213531 
	C807.034546,420.213531 802.871277,420.398895 798.733765,420.152069 
	C795.689697,419.970428 794.446838,421.173676 793.410278,423.986481 
	C786.854980,441.775116 780.079834,459.482910 773.346008,477.205505 
	C772.452393,479.557434 771.381897,481.842163 769.957520,485.178925 
	C760.847717,462.734253 752.240662,441.528503 743.564392,420.152069 
	C740.496094,420.152069 737.500305,420.152069 733.562378,420.139648 
M624.755371,428.372070 
	C624.755371,425.773254 624.755371,423.174438 624.755371,420.136505 
	C616.838257,420.136505 609.595825,420.136505 601.999329,420.136505 
	C601.999329,413.087433 601.999329,406.496368 601.999329,399.684631 
	C596.574707,399.684631 591.526733,399.684631 586.106934,399.684631 
	C586.106934,406.640594 586.106934,413.233582 586.106934,420.383240 
	C580.207153,420.383240 574.667297,420.383240 569.151550,420.383240 
	C569.151550,425.383820 569.151550,429.809509 569.151550,434.539581 
	C574.898743,434.539581 580.341614,434.539581 586.276428,434.539581 
	C586.276428,436.469543 586.277405,438.093536 586.276306,439.717499 
	C586.266541,453.542877 586.183350,467.368713 586.271057,481.193481 
	C586.333618,491.058197 589.549988,499.245728 599.447388,503.203094 
	C607.737000,506.517609 616.034729,505.373871 624.597046,502.870880 
	C624.347534,498.218262 624.110413,493.796783 623.859131,489.111176 
	C621.638306,489.662750 619.903015,490.161133 618.139465,490.520721 
	C607.832703,492.622284 602.066040,487.985992 602.012390,477.505554 
	C601.966309,468.510956 602.008301,459.515900 602.010315,450.521057 
	C602.011475,445.243103 602.010498,439.965118 602.010498,434.221375 
	C609.899780,434.221375 617.170654,434.221375 624.750183,434.221375 
	C624.750183,432.249512 624.750183,430.765228 624.755371,428.372070 
z"/>
<path fill="#F3F6F7" opacity="1.000000" stroke="none" 
	d="
M372.473328,417.846008 
	C390.898743,407.541534 405.949615,393.328186 419.437927,377.304230 
	C421.339935,375.044647 422.883148,372.196198 426.721161,373.569672 
	C431.193115,375.170013 432.731903,379.419067 429.419861,383.624023 
	C423.872009,390.667542 418.206299,397.735809 411.766083,403.937866 
	C388.191742,426.640411 361.322083,444.207092 329.740997,453.694641 
	C315.167511,458.072815 300.242645,461.272827 285.022919,456.904510 
	C274.427734,453.863495 269.912262,448.425049 272.203339,437.066650 
	C280.030518,398.262451 315.897369,358.577637 366.388519,362.095123 
	C378.199127,362.917908 389.318909,366.071960 399.498627,372.162354 
	C404.809784,375.339935 404.830139,380.357025 399.753937,383.573547 
	C387.177124,391.542877 377.942749,402.431885 371.257141,416.424347 
	C371.465088,417.306702 371.969208,417.576355 372.473328,417.846008 
M289.900208,424.474213 
	C288.551300,428.913239 287.285461,433.379669 285.830078,437.783508 
	C284.389252,442.143188 286.621216,444.264160 290.415131,444.635254 
	C295.348602,445.117798 300.352722,444.828125 305.319550,445.035706 
	C308.773895,445.180084 310.111298,443.586304 310.891602,440.289825 
	C315.694916,419.998322 325.017090,402.032898 339.203339,386.666779 
	C342.538788,383.053925 345.887451,379.453339 349.477600,375.580078 
	C345.535065,376.511200 341.580414,377.112823 337.852020,378.380096 
	C314.996887,386.148743 300.037262,402.300507 289.900208,424.474213 
M375.793243,377.313995 
	C372.723785,378.531067 369.411804,379.346313 366.623474,381.029144 
	C345.378448,393.851074 333.065430,413.251129 326.266968,436.600098 
	C325.891052,437.891266 325.918274,439.299805 325.658051,441.496002 
	C333.479065,438.424866 340.521515,435.889160 347.330688,432.833649 
	C349.166992,432.009644 351.011658,429.838776 351.637329,427.895020 
	C357.427094,409.907410 367.151367,394.485016 380.951538,381.601929 
	C381.875458,380.739410 382.674744,379.743439 384.007080,378.292023 
	C381.068604,377.881134 378.824890,377.567413 375.793243,377.313995 
z"/>
<path fill="#F3F5F6" opacity="1.000000" stroke="none" 
	d="
M289.971436,480.430511 
	C305.650208,484.366425 320.565125,481.768707 335.041901,476.950256 
	C377.532654,462.807617 410.913635,436.897003 433.951080,398.280090 
	C439.161591,389.545807 442.813995,380.050140 442.878418,369.530548 
	C442.906097,365.007172 445.718323,362.288269 449.606171,362.588226 
	C454.109558,362.935638 455.378571,366.012848 455.307220,369.912811 
	C455.085938,382.010345 451.388367,393.252686 445.604675,403.638062 
	C441.259155,411.441101 435.658508,418.540497 430.728546,426.026855 
	C429.803467,427.431702 428.761444,429.227753 428.864197,430.770660 
	C430.289948,452.180023 424.030792,471.409241 411.251343,488.199341 
	C389.589691,516.659180 360.524963,531.051453 324.636353,530.639038 
	C318.102051,530.564026 311.543457,528.580078 305.089050,527.077942 
	C301.219635,526.177429 298.178345,523.938721 299.851624,519.197815 
	C301.360962,514.921448 304.763428,515.027039 308.471893,515.859680 
	C350.944977,525.395813 397.667480,499.809845 412.147003,458.966034 
	C413.787628,454.338074 414.513550,449.385834 414.634766,444.044403 
	C410.796631,447.346252 406.989166,450.684540 403.115295,453.943909 
	C381.555725,472.083466 357.527100,485.613281 330.004272,492.301544 
	C316.983002,495.465851 303.643860,497.141174 290.481232,493.653564 
	C285.036255,492.210846 279.998749,488.865143 275.098145,485.859528 
	C271.742157,483.801239 271.526611,480.272522 273.735962,477.121887 
	C276.070679,473.792419 279.048248,474.621124 282.083099,476.428467 
	C284.495850,477.865417 287.083191,479.009094 289.971436,480.430511 
z"/>
<path fill="#F4F6F7" opacity="1.000000" stroke="none" 
	d="
M1245.955078,428.953918 
	C1259.050537,415.775604 1286.246582,411.771393 1304.073975,433.487518 
	C1304.073975,423.545715 1304.073975,414.525116 1304.073975,405.504547 
	C1304.073975,396.545593 1304.073975,387.586670 1304.073975,378.275940 
	C1309.401978,378.275940 1314.310181,378.275940 1319.560303,378.275940 
	C1319.560303,419.604248 1319.560303,460.980316 1319.560303,502.674652 
	C1314.585083,502.674652 1309.833740,502.674652 1304.463623,502.674652 
	C1304.463623,498.892059 1304.463623,495.040588 1304.463623,490.069794 
	C1303.132690,491.240387 1302.630737,491.555786 1302.292969,491.997070 
	C1285.498901,513.935974 1246.751465,508.674530 1235.790405,479.082611 
	C1229.019287,460.802429 1231.711792,443.704010 1245.955078,428.953918 
M1251.488892,448.204803 
	C1250.858276,450.099213 1250.135254,451.968445 1249.611816,453.891998 
	C1245.417847,469.304077 1254.113770,485.977020 1268.414551,490.008301 
	C1289.107300,495.841492 1307.057373,479.071198 1304.044678,456.719910 
	C1302.330811,444.004730 1292.939453,434.234985 1280.491699,432.217834 
	C1268.459106,430.267975 1257.828735,435.939453 1251.488892,448.204803 
z"/>
<path fill="#F5F6F7" opacity="1.000000" stroke="none" 
	d="
M832.670166,501.008240 
	C831.406921,501.909637 830.350281,502.879700 829.260559,502.918579 
	C824.458862,503.089813 819.647583,502.992493 814.215393,502.992493 
	C831.461853,463.798889 848.503784,425.070099 865.515869,386.409088 
	C865.783875,386.326935 865.940552,386.247101 866.102661,386.233795 
	C880.846069,385.021057 880.871216,385.010315 886.754395,398.407623 
	C901.253052,431.424408 915.729614,464.450958 930.200500,497.479980 
	C930.916687,499.114624 931.494446,500.809875 932.353882,503.040649 
	C926.587585,503.040649 921.447998,503.219818 916.339539,502.900726 
	C915.217590,502.830658 913.773926,501.182190 913.215698,499.931488 
	C910.098206,492.947662 907.083130,485.911224 904.303345,478.787262 
	C903.266846,476.130920 902.087585,474.909698 898.976074,474.941406 
	C881.825684,475.116241 864.672424,475.072174 847.520752,474.981659 
	C844.717712,474.966888 843.070801,475.574463 841.969604,478.524567 
	C839.182190,485.991943 835.928528,493.285248 832.670166,501.008240 
M884.428894,432.035339 
	C880.792725,423.474579 877.156555,414.913788 873.060120,405.269592 
	C865.104736,424.190674 857.631836,441.964081 850.026489,460.052490 
	C865.797729,460.052490 880.746155,460.052490 896.314941,460.052490 
	C892.359863,450.695923 888.561218,441.709473 884.428894,432.035339 
z"/>
<path fill="#F5F7F8" opacity="1.000000" stroke="none" 
	d="
M536.764282,385.201660 
	C543.247742,388.452942 549.349609,391.583069 556.035950,395.013000 
	C551.274963,400.128998 547.567261,404.113129 544.094543,407.844727 
	C539.582092,405.198608 535.549744,402.238708 531.067871,400.339294 
	C523.521851,397.141296 515.724121,397.531982 508.281006,400.981049 
	C501.866730,403.953369 498.195709,409.061218 498.080261,416.272980 
	C497.969147,423.213593 501.589813,428.202240 507.687317,430.740356 
	C515.490906,433.988556 523.657410,436.357483 531.634888,439.196838 
	C544.201782,443.669708 554.522888,450.422882 556.119019,465.148193 
	C558.302856,485.295074 547.613892,500.076874 527.354431,504.203064 
	C508.246582,508.094696 490.985046,504.441376 476.594482,489.498505 
	C480.812622,485.595520 484.901367,481.812256 489.107117,477.920746 
	C497.202209,486.382507 507.484009,490.995331 519.993103,490.017944 
	C530.630127,489.186829 538.519226,481.888489 538.977844,472.350586 
	C539.307007,465.505402 536.608704,460.107056 530.279419,457.420105 
	C523.560730,454.567963 516.506226,452.512787 509.626190,450.032318 
	C506.035126,448.737610 502.424896,447.449677 498.958374,445.863464 
	C473.563293,434.242889 477.370575,402.163177 495.147675,390.560730 
	C508.073730,382.124420 521.907288,381.406128 536.764282,385.201660 
z"/>
<path fill="#F3F6F6" opacity="1.000000" stroke="none" 
	d="
M1017.228760,431.792480 
	C1019.170410,438.449768 1022.174561,444.732452 1022.462402,451.137177 
	C1023.187073,467.264160 1022.692322,483.446198 1022.662354,499.606140 
	C1022.660522,500.575043 1022.447327,501.543549 1022.305054,502.744446 
	C1017.164917,502.744446 1012.235901,502.744446 1006.839600,502.744446 
	C1006.839600,490.036255 1006.883545,477.404755 1006.817810,464.773804 
	C1006.791809,459.783325 1006.888245,454.749298 1006.284424,449.813965 
	C1005.118896,440.288483 999.641785,434.338379 990.934875,432.374237 
	C982.683655,430.512909 972.946289,433.860107 968.991333,441.616119 
	C966.077698,447.329987 964.245789,454.086029 963.858337,460.494171 
	C963.075378,473.442383 963.606812,486.469818 963.580688,499.464539 
	C963.578735,500.442596 963.453918,501.420410 963.365723,502.694885 
	C958.272888,502.694885 953.396851,502.694885 948.220947,502.694885 
	C948.220947,461.234283 948.220947,419.976257 948.220947,378.331848 
	C953.148132,378.331848 958.173950,378.331848 963.681702,378.331848 
	C963.681702,396.317932 963.681702,414.167877 963.681702,433.725708 
	C971.686096,421.558807 981.886475,416.936737 994.679138,418.192261 
	C1004.171692,419.123871 1011.705627,423.492340 1017.228760,431.792480 
z"/>
<path fill="#F4F6F7" opacity="1.000000" stroke="none" 
	d="
M1083.090210,418.032776 
	C1110.483887,418.383850 1127.165283,438.148102 1124.608887,467.264954 
	C1102.945923,467.264954 1081.226196,467.264954 1059.553101,467.264954 
	C1058.884644,475.775848 1064.822510,485.052246 1073.110352,489.059692 
	C1085.619019,495.108032 1097.599365,492.229950 1110.719238,479.805328 
	C1113.933350,482.515167 1117.184692,485.256256 1120.399048,487.966278 
	C1110.590820,503.025085 1087.745117,509.576172 1069.781372,502.750519 
	C1051.145874,495.669617 1040.120728,475.552612 1043.373047,454.564819 
	C1046.657227,433.372375 1061.921631,419.166840 1083.090210,418.032776 
M1099.458008,435.938232 
	C1090.566528,429.577545 1080.986816,429.281799 1071.663818,434.139709 
	C1063.712036,438.283142 1059.642944,445.545319 1058.982056,454.851990 
	C1075.824951,454.851990 1092.259277,454.851990 1109.063843,454.851990 
	C1108.347046,447.338470 1105.539551,441.214996 1099.458008,435.938232 
z"/>
<path fill="#F5F7F8" opacity="1.000000" stroke="none" 
	d="
M664.303833,453.335815 
	C674.966431,452.567719 685.222656,451.908081 695.528870,451.245239 
	C697.059265,438.843323 687.984680,430.352783 674.162781,431.409180 
	C665.934631,432.038086 658.723572,434.974030 653.054626,440.433533 
	C649.621643,437.426483 646.520935,434.710510 643.452148,432.022430 
	C655.655701,418.354950 681.087280,413.880341 696.419922,422.249084 
	C705.758362,427.346191 709.803711,435.722565 710.968262,445.835144 
	C711.214905,447.976501 711.148682,450.158997 711.150391,452.322601 
	C711.163330,468.967224 711.157532,485.611816 711.157532,502.638794 
	C706.347778,502.638794 701.791382,502.638794 696.771484,502.638794 
	C696.594543,499.216919 696.410828,495.663574 696.185242,491.299133 
	C690.309204,497.987732 684.180359,503.205536 675.769104,504.593506 
	C666.158813,506.179321 656.676086,505.976013 648.549500,499.812805 
	C634.123047,488.871643 635.870728,466.558228 651.807922,457.950653 
	C655.555786,455.926422 659.852966,454.919281 664.303833,453.335815 
M680.526794,491.251526 
	C692.179871,486.800079 698.140503,476.006592 695.583191,464.194397 
	C688.603882,464.194397 681.610596,463.704224 674.728943,464.368927 
	C670.237793,464.802734 665.662292,466.407593 661.569580,468.401306 
	C656.505249,470.868195 654.407104,475.535889 654.944214,481.252014 
	C655.427673,486.396759 658.656921,489.860443 663.171082,490.744263 
	C668.541504,491.795685 674.216248,491.292297 680.526794,491.251526 
z"/>
<path fill="#F4F6F7" opacity="1.000000" stroke="none" 
	d="
M1196.164185,445.590088 
	C1193.866699,436.720062 1188.304321,432.451385 1179.690552,431.633148 
	C1169.896606,430.702820 1163.826538,432.632324 1153.303467,440.645264 
	C1150.318604,437.679474 1147.301514,434.681763 1143.897217,431.299255 
	C1152.434570,423.011414 1162.633789,419.133881 1173.963013,418.216705 
	C1178.545898,417.845673 1183.316528,418.285950 1187.854126,419.140808 
	C1202.300659,421.862274 1211.058350,431.884216 1211.606079,447.685028 
	C1212.223267,465.490997 1211.766113,483.334290 1211.754639,501.161346 
	C1211.754395,501.624420 1211.503174,502.087341 1211.304932,502.771729 
	C1206.716797,502.771729 1202.154785,502.771729 1197.144043,502.771729 
	C1197.144043,499.131012 1197.144043,495.729767 1197.144043,492.328522 
	C1196.582764,491.917053 1196.021362,491.505585 1195.460083,491.094116 
	C1194.998291,492.139893 1194.768188,493.395264 1194.040039,494.199829 
	C1183.792358,505.522369 1167.798340,508.788147 1153.900146,502.442566 
	C1145.066528,498.409424 1140.217896,491.420715 1139.566406,481.831970 
	C1138.920410,472.320312 1142.492554,464.530029 1150.600464,459.224579 
	C1158.359741,454.147247 1167.181396,452.398438 1176.253784,452.008362 
	C1183.037964,451.716675 1189.844727,451.950806 1197.099243,451.950806 
	C1196.753784,449.596588 1196.491699,447.810120 1196.164185,445.590088 
M1183.706665,490.462402 
	C1193.640015,485.249329 1197.827393,476.716858 1196.398804,463.243378 
	C1187.255615,463.938629 1178.035156,464.398743 1168.888062,465.479950 
	C1166.087646,465.810974 1163.250244,467.504242 1160.851196,469.177765 
	C1156.937256,471.908203 1154.991333,475.850067 1155.581909,480.795135 
	C1156.202759,485.994141 1159.295776,489.247589 1163.989990,490.940948 
	C1170.297852,493.216431 1176.685669,493.135681 1183.706665,490.462402 
z"/>
<path fill="#F4F6F7" opacity="1.000000" stroke="none" 
	d="
M734.033447,420.145874 
	C737.500305,420.152069 740.496094,420.152069 743.564392,420.152069 
	C752.240662,441.528503 760.847717,462.734253 769.957520,485.178925 
	C771.381897,481.842163 772.452393,479.557434 773.346008,477.205505 
	C780.079834,459.482910 786.854980,441.775116 793.410278,423.986481 
	C794.446838,421.173676 795.689697,419.970428 798.733765,420.152069 
	C802.871277,420.398895 807.034546,420.213531 811.480896,420.213531 
	C811.124268,421.612335 810.970581,422.763397 810.545227,423.803375 
	C797.197632,456.437469 784.011047,489.139404 770.376099,521.653259 
	C763.319641,538.480164 747.249939,543.802246 730.216492,535.190857 
	C731.609192,531.138733 733.034424,526.991699 734.378662,523.080566 
	C735.082703,522.824341 735.458923,522.536621 735.686768,522.626221 
	C747.292297,527.190430 752.005676,524.953369 757.333862,513.735535 
	C760.760071,506.522125 761.108032,500.458954 757.471680,492.797302 
	C746.637634,469.970032 736.923828,446.610931 726.791992,423.451019 
	C726.414612,422.588440 726.241211,421.636566 725.799805,420.139648 
	C728.682190,420.139648 731.122314,420.139648 734.033447,420.145874 
z"/>
<path fill="#F3F5F6" opacity="1.000000" stroke="none" 
	d="
M624.752808,428.826508 
	C624.750183,430.765228 624.750183,432.249512 624.750183,434.221375 
	C617.170654,434.221375 609.899780,434.221375 602.010498,434.221375 
	C602.010498,439.965118 602.011475,445.243103 602.010315,450.521057 
	C602.008301,459.515900 601.966309,468.510956 602.012390,477.505554 
	C602.066040,487.985992 607.832703,492.622284 618.139465,490.520721 
	C619.903015,490.161133 621.638306,489.662750 623.859131,489.111176 
	C624.110413,493.796783 624.347534,498.218262 624.597046,502.870880 
	C616.034729,505.373871 607.737000,506.517609 599.447388,503.203094 
	C589.549988,499.245728 586.333618,491.058197 586.271057,481.193481 
	C586.183350,467.368713 586.266541,453.542877 586.276306,439.717499 
	C586.277405,438.093536 586.276428,436.469543 586.276428,434.539581 
	C580.341614,434.539581 574.898743,434.539581 569.151550,434.539581 
	C569.151550,429.809509 569.151550,425.383820 569.151550,420.383240 
	C574.667297,420.383240 580.207153,420.383240 586.106934,420.383240 
	C586.106934,413.233582 586.106934,406.640594 586.106934,399.684631 
	C591.526733,399.684631 596.574707,399.684631 601.999329,399.684631 
	C601.999329,406.496368 601.999329,413.087433 601.999329,420.136505 
	C609.595825,420.136505 616.838257,420.136505 624.755371,420.136505 
	C624.755371,423.174438 624.755371,425.773254 624.752808,428.826508 
z"/>
<path fill="#13212D" opacity="1.000000" stroke="none" 
	d="
M290.031067,424.114990 
	C300.037262,402.300507 314.996887,386.148743 337.852020,378.380096 
	C341.580414,377.112823 345.535065,376.511200 349.477600,375.580078 
	C345.887451,379.453339 342.538788,383.053925 339.203339,386.666779 
	C325.017090,402.032898 315.694916,419.998322 310.891602,440.289825 
	C310.111298,443.586304 308.773895,445.180084 305.319550,445.035706 
	C300.352722,444.828125 295.348602,445.117798 290.415131,444.635254 
	C286.621216,444.264160 284.389252,442.143188 285.830078,437.783508 
	C287.285461,433.379669 288.551300,428.913239 290.031067,424.114990 
z"/>
<path fill="#14222D" opacity="1.000000" stroke="none" 
	d="
M376.187225,377.283813 
	C378.824890,377.567413 381.068604,377.881134 384.007080,378.292023 
	C382.674744,379.743439 381.875458,380.739410 380.951538,381.601929 
	C367.151367,394.485016 357.427094,409.907410 351.637329,427.895020 
	C351.011658,429.838776 349.166992,432.009644 347.330688,432.833649 
	C340.521515,435.889160 333.479065,438.424866 325.658051,441.496002 
	C325.918274,439.299805 325.891052,437.891266 326.266968,436.600098 
	C333.065430,413.251129 345.378448,393.851074 366.623474,381.029144 
	C369.411804,379.346313 372.723785,378.531067 376.187225,377.283813 
z"/>
<path fill="#0D1C29" opacity="1.000000" stroke="none" 
	d="
M372.211304,417.496338 
	C371.969208,417.576355 371.465088,417.306702 371.166962,416.763367 
	C371.565094,416.708649 371.757202,416.927643 372.211304,417.496338 
z"/>
<path fill="#0F1E2B" opacity="1.000000" stroke="none" 
	d="
M1251.657349,447.858154 
	C1257.828735,435.939453 1268.459106,430.267975 1280.491699,432.217834 
	C1292.939453,434.234985 1302.330811,444.004730 1304.044678,456.719910 
	C1307.057373,479.071198 1289.107300,495.841492 1268.414551,490.008301 
	C1254.113770,485.977020 1245.417847,469.304077 1249.611816,453.891998 
	C1250.135254,451.968445 1250.858276,450.099213 1251.657349,447.858154 
z"/>
<path fill="#12212D" opacity="1.000000" stroke="none" 
	d="
M884.595703,432.379211 
	C888.561218,441.709473 892.359863,450.695923 896.314941,460.052490 
	C880.746155,460.052490 865.797729,460.052490 850.026489,460.052490 
	C857.631836,441.964081 865.104736,424.190674 873.060120,405.269592 
	C877.156555,414.913788 880.792725,423.474579 884.595703,432.379211 
z"/>
<path fill="#12212D" opacity="1.000000" stroke="none" 
	d="
M1099.753906,436.149475 
	C1105.539551,441.214996 1108.347046,447.338470 1109.063843,454.851990 
	C1092.259277,454.851990 1075.824951,454.851990 1058.982056,454.851990 
	C1059.642944,445.545319 1063.712036,438.283142 1071.663818,434.139709 
	C1080.986816,429.281799 1090.566528,429.577545 1099.753906,436.149475 
z"/>
<path fill="#11202C" opacity="1.000000" stroke="none" 
	d="
M680.142944,491.357056 
	C674.216248,491.292297 668.541504,491.795685 663.171082,490.744263 
	C658.656921,489.860443 655.427673,486.396759 654.944214,481.252014 
	C654.407104,475.535889 656.505249,470.868195 661.569580,468.401306 
	C665.662292,466.407593 670.237793,464.802734 674.728943,464.368927 
	C681.610596,463.704224 688.603882,464.194397 695.583191,464.194397 
	C698.140503,476.006592 692.179871,486.800079 680.142944,491.357056 
z"/>
<path fill="#13212E" opacity="1.000000" stroke="none" 
	d="
M1183.358154,490.634277 
	C1176.685669,493.135681 1170.297852,493.216431 1163.989990,490.940948 
	C1159.295776,489.247589 1156.202759,485.994141 1155.581909,480.795135 
	C1154.991333,475.850067 1156.937256,471.908203 1160.851196,469.177765 
	C1163.250244,467.504242 1166.087646,465.810974 1168.888062,465.479950 
	C1178.035156,464.398743 1187.255615,463.938629 1196.398804,463.243378 
	C1197.827393,476.716858 1193.640015,485.249329 1183.358154,490.634277 
z"/>
</svg>